Coordinates
version=1
nRows=54
nColumns=12
inDegrees=yes

Units are S.I. units (second, meters, Newtons, ...)
Angles are in degrees

endheader
time	SC_y	SC_z	SC_x	AC_y	AC_z	AC_x	GH_y	GH_z	GH_yy	EL_x	PS_y
       0.0              -55.27          26.71           54.5          61.16        -0.6491         -8.145         -146.7         -14.17         -56.71          5.341          141.8
   0.04211              -55.27          26.71           54.5          61.16        -0.6512         -8.145         -146.6         -14.16         -56.69          5.342          141.8
   0.08421              -55.26          26.72           54.5          61.15        -0.6533         -8.144         -146.6         -14.16         -56.68          5.343          141.8
    0.1263              -55.26          26.72          54.49          61.15        -0.6556         -8.144         -146.6         -14.16         -56.67          5.344          141.8
    0.1684              -55.25          26.72          54.48          61.15        -0.6581         -8.144         -146.6         -14.16         -56.65          5.345          141.7
    0.2105              -55.25          26.72          54.48          61.14        -0.6607         -8.144         -146.6         -14.15         -56.64          5.347          141.7
    0.2526              -55.25          26.72          54.47          61.14        -0.6635         -8.143         -146.5         -14.15         -56.62          5.348          141.7
    0.2947              -55.24          26.72          54.46          61.13        -0.6664         -8.143         -146.5         -14.14         -56.61           5.35          141.7
    0.3368              -55.24          26.73          54.46          61.13        -0.6696         -8.143         -146.5         -14.14         -56.59          5.351          141.6
    0.3789              -55.23          26.73          54.45          61.12         -0.673         -8.142         -146.4         -14.14         -56.57          5.353          141.6
    0.4211              -55.22          26.73          54.44          61.12        -0.6767         -8.142         -146.4         -14.13         -56.55          5.355          141.6
    0.4632              -55.22          26.74          54.43          61.11        -0.6806         -8.141         -146.4         -14.13         -56.52          5.357          141.5
    0.5053              -55.21          26.74          54.42           61.1        -0.6849         -8.141         -146.3         -14.12          -56.5           5.36          141.5
    0.5474               -55.2          26.74          54.41           61.1        -0.6895          -8.14         -146.3         -14.12         -56.47          5.362          141.4
    0.5895              -55.19          26.75           54.4          61.09        -0.6945          -8.14         -146.3         -14.11         -56.44          5.365          141.4
    0.6316              -55.18          26.75          54.39          61.08        -0.6999         -8.139         -146.2          -14.1         -56.41          5.367          141.3
    0.6737              -55.18          26.75          54.37          61.07        -0.7057         -8.139         -146.2          -14.1         -56.38          5.371          141.3
    0.7158              -55.16          26.76          54.36          61.06        -0.7121         -8.138         -146.1         -14.09         -56.34          5.374          141.2
    0.7579              -55.15          26.76          54.34          61.05        -0.7191         -8.137         -146.1         -14.08          -56.3          5.378          141.2
       0.8              -55.14          26.77          54.33          61.04        -0.7267         -8.136         -146.0         -14.07         -56.26          5.382          141.1
    0.8421              -55.13          26.78          54.31          61.02        -0.7351         -8.135         -145.9         -14.06         -56.21          5.386          141.0
    0.8842              -55.11          26.78          54.28          61.01        -0.7443         -8.134         -145.8         -14.05         -56.16          5.391          140.9
    0.9263              -55.09          26.79          54.26          60.99        -0.7545         -8.133         -145.7         -14.04          -56.1          5.396          140.8
    0.9684              -55.08           26.8          54.23          60.97        -0.7658         -8.132         -145.6         -14.02         -56.03          5.402          140.7
     1.011              -55.05          26.81          54.21          60.95        -0.7784          -8.13         -145.5         -14.01         -55.96          5.409          140.6
     1.053              -55.03          26.82          54.17          60.93        -0.7924         -8.129         -145.4         -13.99         -55.88          5.416          140.5
     1.095              -55.01          26.83          54.14          60.91        -0.8081         -8.127         -145.3         -13.97         -55.79          5.425          140.4
     1.137              -54.98          26.84           54.1          60.88        -0.8258         -8.125         -145.1         -13.95         -55.69          5.434          140.2
     1.179              -54.94          26.86          54.05          60.85        -0.8457         -8.123         -145.0         -13.92         -55.57          5.444          140.0
     1.221              -54.91          26.87           54.0          60.81        -0.8684          -8.12         -144.8          -13.9         -55.44          5.456          139.8
     1.263              -54.86          26.89          53.94          60.77        -0.8942         -8.117         -144.5         -13.86         -55.29           5.47          139.6
     1.305              -54.81          26.92          53.87          60.72        -0.9239         -8.114         -144.3         -13.83         -55.12          5.486          139.3
     1.347              -54.76          26.94          53.79          60.67        -0.9581          -8.11         -144.0         -13.78         -54.92          5.504          139.0
     1.389              -54.69          26.97           53.7           60.6        -0.9979         -8.106         -143.6         -13.73         -54.69          5.525          138.6
     1.432              -54.61          27.01          53.59          60.53         -1.045           -8.1         -143.2         -13.68         -54.42          5.549          138.2
     1.474              -54.52          27.05          53.46          60.44         -1.099         -8.094         -142.8         -13.61          -54.1          5.578          137.7
     1.516              -54.41          27.09          53.31          60.34         -1.165         -8.087         -142.2         -13.53         -53.73          5.613          137.1
     1.558              -54.28          27.15          53.13          60.21         -1.243         -8.078         -141.5         -13.43         -53.27          5.654          136.4
       1.6              -54.13          27.22          52.91          60.06         -1.338         -8.068         -140.7         -13.32         -52.73          5.704          135.5
     1.642              -53.94          27.31          52.64          59.88         -1.453         -8.055         -139.7         -13.17         -52.06          5.765          134.4
     1.684               -53.7          27.41          52.31          59.65         -1.596         -8.038         -138.5          -13.0         -51.23           5.84          133.1
     1.726               -53.4          27.55           51.9          59.37         -1.774         -8.018         -137.0         -12.78          -50.2          5.934          131.5
     1.768              -53.03          27.71          51.38          59.01         -1.998         -7.993         -135.0          -12.5         -48.91          6.052          129.5
     1.811              -52.56          27.92          50.73          58.55         -2.283         -7.961         -132.6         -12.15         -47.26          6.203          126.9
     1.853              -51.95          28.19          49.88          57.97         -2.647          -7.92         -129.4          -11.7         -45.15          6.395          123.5
     1.895              -51.18          28.54           48.8          57.23         -3.115         -7.868         -125.4         -11.12         -42.45          6.642          119.2
     1.937              -50.19          28.98          47.42          56.27         -3.713           -7.8         -120.2         -10.38         -38.99          6.958          113.8
     1.979              -48.94          29.54          45.68          55.07         -4.464         -7.716         -113.7         -9.449         -34.65          7.354          106.9
     2.021              -47.42          30.22          43.56          53.61          -5.38         -7.613         -105.8         -8.316         -29.35          7.838          98.49
     2.063              -45.66          31.01           41.1          51.92         -6.442         -7.493         -96.67         -7.003         -23.21          8.398          88.76
     2.105              -43.75          31.86          38.44          50.08         -7.591         -7.364         -86.76         -5.582         -16.57          9.004          78.24
     2.147              -41.84          32.71          35.78          48.25         -8.741         -7.235         -76.84         -4.161         -9.919          9.611          67.71
     2.189              -40.08           33.5          33.33          46.56         -9.802         -7.116         -67.68         -2.848         -3.781          10.17          57.99
     2.232              -38.56          34.18          31.21          45.09         -10.72         -7.013         -59.78         -1.716          1.514          10.65           49.6
